<svg height="94pt" preserveAspectRatio="xMidYMid meet" viewBox="0 0 94 94" width="94pt" xmlns="http://www.w3.org/2000/svg"><g fill="#f00" transform="matrix(.1 0 0 -.1 0 94)"><path d="m0 824c0-77 3-113 10-109 6 4 8 15 5 26-4 10-3 24 2 31 12 20 14 46 3 53-35 22 22 113 63 100 39-12 82-13 89-2 4 8 10 7 20 0 12-10 58-1 58 12 0 3-56 5-125 5h-125z"/><path d="m256 925c-6-15 9-21 18-7 8 14 87 7 96-8 8-13 10-12 10 2 0 9 6 19 13 21 6 3-20 6-59 6-55 1-73-2-78-14z"/><path d="m415 930c4-6 11-8 16-5 14 9 11 15-7 15-8 0-12-5-9-10z"/><path d="m454 931c4-5 0-12-6-14-7-3-3-6 9-6 12-1 24-7 26-13 3-7 6-3 6 10 1 23 34 32 46 12 3-5 11-10 16-10 6 0 8 4 5 9s12 8 35 7c22-1 42 1 45 6 3 4-38 8-91 8-56 0-94-4-91-9z"/><path d="m670 925c10-12 15-13 28-3 12 10 16 10 19 1 3-7 9-13 14-13 6 0 7 5 4 10-8 13 28 13 41 0 6-6 22-6 44 0 41 12 77 4 90-21 9-15 8-17-7-12-17 6-17 5-2-13 21-25 30-62 17-70-6-4-5-10 3-15 12-8 12-10 0-18-8-5-9-11-3-15 11-7 9-89-3-118-5-12-3-18 6-18 8-1 3-7-10-14-23-13-23-13-2-19 24-6 29-27 7-27-8 0-18-5-22-11-4-8 0-9 15-4 17 5 21 2 21-14 0-11-4-22-9-26-11-6-10-45 0-45 4 0 3-14-2-32-5-21-5-36 1-42 14-14 13-43-2-48-7-3-6-7 5-11 15-6 17 6 17 127 0 98-3 136-12 139-10 4-10 6 0 6 9 1 12 42 12 171v170h-141c-125 0-140-2-129-15z"/><path d="m842 890c-7-12-10-25-7-30 11-17-6-50-24-50-27 0-30-8-13-45 10-22 23-35 35-35 11 0 26-8 34-17 9-11 12-12 7-3-6 12-5 13 7 2 11-10 11-14 1-21-10-6-10-10 1-20 12-10 15-5 19 29 2 23 0 44-4 46s-5 26-4 52c3 33-2 56-16 80-11 17-20 32-21 32s-8-9-15-20z"/><path d="m53 894c4-7 0-14-8-18-21-8-19-29 5-43 17-11 17-16 6-37-12-24-10-86 3-86 3 0 14 16 23 36 14 28 15 38 6 53-16 26 5 51 43 51 22 0 29 5 29 19 0 28-18 36-39 17-22-20-30-20-54 2-11 9-17 12-14 6z"/><path d="m85 890c-3-5-1-10 4-10 6 0 11 5 11 10 0 6-2 10-4 10-3 0-8-4-11-10z"/><path d="m190 886c5-5 6-15 3-22-4-10 6-13 42-11 37 2 49 6 55 22 7 19 3 20-51 20-33 0-54-4-49-9z"/><path d="m411 890c-36-8-36-26-2-33 40-8 51-47 26-89-13-22-14-33-6-41 14-14 14-82 1-106-7-14-5-23 10-36 27-24 25-39-5-55-20-11-29-11-49-1-20 11-29 11-53-2-57-30-79-36-113-33s-50 19-31 31c21 13 10 25-22 25-36 0-72 30-79 64-1 11-9 21-17 24-10 3-12 0-8-12 4-10 3-15-3-11-11 7-12 0-11-114 0-46-3-89-6-94-11-19-8-68 5-79 17-15 28-2 13 16-8 10-9 16-1 21 5 3 10 12 10 18 0 7-4 6-10-3-8-13-10-12-10 3 0 13 5 17 18 13 13-5 29 6 55 34 41 46 61 50 89 15 19-25 48-34 48-15 0 6 7 10 15 10 7 0 18 7 23 16 7 13 13 14 30 5 11-6 32-11 45-11s36-9 51-21c37-29 37-95 0-138-18-22-22-31-11-31 24 0 42-29 31-48-7-11-7-25 0-46 9-24 8-30-4-34-8-3-27-18-42-34-31-33-54-35-84-7l-23 21-24-27c-18-22-28-26-43-20-10 4-23 7-29 5-44-13-162 21-148 43 3 6 1 7-5 4-17-12 9-55 30-49 11 3 18-1 18-10 0-12 11-14 54-10 30 2 67 0 83-5 18-6 45-5 78 2 39 9 58 9 88-1 26-9 45-10 63-4 14 6 37 10 52 10 20 0 23 3 14 12-18 18-15 46 9 85l21 34-22 21c-17 16-21 28-16 50 3 16 1 39-5 50-8 15-7 24 5 37 9 10 13 26 9 39-10 39 19 58 96 66 89 8 105 14 90 32-17 21-66 17-82-6-14-20-15-20-22-3-5 10-7 21-7 26 1 4-2 7-8 7-5 0-20 11-33 25-23 26-23 26-41 6-19-21-46-18-46 4 0 21 19 28 38 13 15-11 16-11 6 2-16 23-12 55 8 54 10-1 18 8 21 22 3 18 0 24-14 24-10 0-24 9-31 20s-18 20-25 20-13 7-13 15c0 10 8 15 23 14 43-4 57 1 57 20 0 11 7 26 15 35 19 19 19 27 0 20-23-9-41 39-27 71 14 31-2 43-28 20-10-9-21-12-24-7-8 14-37 19-65 12zm89-94c0-16-18-31-27-22-8 8 5 36 17 36 5 0 10-6 10-14zm-80-310c0-8-4-17-9-21-12-7-24 12-16 25 9 15 25 12 25-4z"/><path d="m320 860c0-34 3-33-137-30-68 1-83-1-83-13 0-9 9-17 20-19 18-3 17-8-17-65-21-35-43-63-49-63-12 0-27-40-18-49 3-3 7 5 11 17 5 21 14 26 39 23 7-1 15 7 18 16 4 10 21 42 39 71 29 49 34 52 70 52h40l-7-103c-4-56-11-119-15-140-5-20-5-37-1-37 5 0 15-2 22-5 12-5 15 10 16 72 2 107 22 213 39 213 22 0 17-77-7-90-11-6-17-17-14-25 5-12 11-12 39 2 37 18 65 12 65-12 0-10-5-13-12-9-7 5-9 2-5-9 9-24-16-39-39-23-13 10-23 11-32 4-10-9-8-14 9-26l21-15-28-22c-42-33-22-51 27-23 36 20 40 21 57 4 11-9 26-14 36-10 16 6 22 24 8 24-5 0-17 6-27 14-17 12-17 14-2 37 20 27 22 80 5 97-7 7-22 12-35 12-20 0-23 5-23 40 0 33 3 40 20 40 23 0 26-10 8-28-9-9-7-13 7-18 12-5 22-1 31 11 29 39 12 65-42 65-19 0-24 5-24 25 0 16-6 25-15 25-10 0-15-10-15-30z"/><path d="m743 883c9-2 23-2 30 0 6 3-1 5-18 5-16 0-22-2-12-5z"/><path d="m540 837c0-21 4-23 31-19 22 3 30 1 25-7-4-6-2-11 3-11 6 0 11 5 11 10 0 6 4 10 9 10 4 0 6-11 4-24-4-17-14-26-34-30-18-3-29-12-29-22 0-12 6-14 29-9 26 6 29 4 24-14-4-18-13-21-54-21-37 0-49-4-49-15 0-13 26-15 170-15 163 0 170 1 170 20 0 16-7 20-35 20-32 0-35 3-35 29 0 42-21 55-80 48-31-4-50-2-50 4s4 7 10 4c5-3 7 0 4 8-7 18 24 27 99 27 44 0 57 3 57 15 0 13-22 15-140 15-140 0-140 0-140-23zm208-109c-3-20-10-23-55-26-47-3-53-1-53 17 0 22 16 28 73 30 34 1 38-1 35-21z"/><path d="m195 760c3-5 10-10 16-10 5 0 9 5 9 10 0 6-7 10-16 10-8 0-12-4-9-10z"/><path d="m25 740c3-5 8-10 11-10 2 0 4 5 4 10 0 6-5 10-11 10-5 0-7-4-4-10z"/><path d="m143 722c-16-10-33-57-33-91 0-58 63-80 99-35 24 30 29 102 9 122-13 13-57 16-75 4zm55-60c2-22-2-34-12-38-9-3-13-10-10-15s-2-9-10-9c-23 0-28 17-21 61 6 34 10 40 28 37 17-2 23-11 25-36z"/><path d="m21 702c-1-7-5-10-11-7-6 4-10-33-10-104 0-83 3-111 13-111 9 0 12 19 10 68-1 37-2 67-3 67-8 0-5 61 3 66 5 4 7 13 4 20-4 11-6 11-6 1z"/><path d="m675 648c-22-5-54-7-72-4-30 4-33 2-39-30-10-55 1-81 42-94 55-18 150-7 180 21 27 25 32 70 9 89s-77 27-120 18zm90-55c0-13-4-23-9-22-5 0-12-5-16-11-4-7-28-15-54-17-49-6-96 15-96 42 0 17 68 34 130 32 40-2 45-5 45-24z"/><path d="m645 580c8-13 55-13 75 0 11 7 2 10-33 10-30 0-46-4-42-10z"/><path d="m849 653c-25-4-27-7-22-43 4-28 0-49-15-74-11-19-18-37-14-40 6-7 12-36 15-81 2-28 33-65 55-65 6 0 13-6 16-12 3-7 3-3 0 9-4 18-2 22 10 17 9-3 16-1 16 5s-7 11-15 11c-11 0-12 5-6 23 10 24 7 109-3 125-3 6-4 33-1 61 3 32 1 51-6 51-5 0-7 5-4 10 3 6 5 9 3 9-2-1-15-4-29-6zm18-169c-9-9-28 6-21 18 4 6 10 6 17-1 6-6 8-13 4-17z"/><path d="m728 483c7-3 16-2 19 1 4 3-2 6-13 5-11 0-14-3-6-6z"/><path d="m0 304c0-112 3-163 10-159 6 4 8 16 4 27-4 14-2 18 5 14 6-4 11-4 10 1-4 23 2 43 11 38 6-4 9-21 8-38-2-18 2-32 7-32 6 0 11 26 11 57 1 33-2 55-8 52-5-3-6-15-2-26 6-19 5-19-20-3s-27 43-3 28c7-4 6 1-2 11-12 14-12 19-2 25s9 10-3 14c-12 5-15 19-13 64 1 32 6 63 10 69 7 12 0 24-15 24-4 0-8-75-8-166z"/><path d="m126 401c-31-31-44-51-37-56 7-4 19-1 27 6 9 7 36 15 62 17 43 3 45 2 31-14-8-9-28-23-46-31-39-16-46-16-38-3 3 6-2 10-12 10-16 0-18-11-18-120 0-114 1-120 20-120 16 0 20 7 20 32 0 17 6 33 13 35 8 3 12-7 12-31 0-25 4-36 15-36 10 0 15 10 15 30s5 30 15 30c8 0 15 7 15 15s-7 15-15 15-15 9-15 20c0 12 7 20 16 20 10 0 14 7 12 18-2 9-10 16-16 14-7-1-12 9-12 24 0 19 4 25 18 22 15-3 17-16 16-106-1-93 0-102 17-102 12 0 19 7 19 20 0 17 7 20 41 20 36 0 41-2 36-20-4-15 0-20 14-20 13 0 19 7 19 24 0 19 6 25 27 28 17 2 29 10 31 20 3 14-1 16-27 8-29-8-31-7-31 16 0 20 5 24 30 24 20 0 30 5 30 15s-10 15-30 15-30 5-30 15c0 8-9 15-20 15-13 0-18-5-14-15 4-11 0-15-16-15-18 0-20 3-11 13 7 9 7 17 0 24-12 12 39 123 57 123 15 0 31-21 28-37-1-7-2-20-3-28 0-9-11-15-26-15-16 0-25-6-25-15 0-22 46-19 70 5 26 26 26 81 2 103-34 31-142 19-142-15 0-15 5-18 20-13 18 6 19 4 10-20-6-14-15-36-21-47-8-15-8-22 0-27 7-5 7-18-1-46l-12-40-6 52c-3 29-11 58-18 65-9 9-8 16 4 29 26 29 11 49-38 49-39 1-41 2-24 15 16 12 15 35-2 35-4 0-29-22-56-49zm34-131c0-13-7-20-20-20-19 0-27 20-13 33 13 14 33 6 33-13zm0-70c0-13-5-18-15-14-8 4-15 12-15 20s7 14 15 14 15-9 15-20zm180-15c0-22-4-25-40-25-33 0-40 3-40 19 0 20 16 28 58 30 17 1 22-4 22-24z"/><path d="m680 429c-30-5-74-11-97-14-31-5-40-10-39-23 2-11 10-16 25-14 11 2 21-1 21-7 0-5 3-16 6-24 6-17-26-33-36-17-4 6-14 8-22 5-15-6-15-10-1-43 10-25 12-37 4-40-6-2-11-10-11-18 0-9 11-14 34-14h34l-34-62c-39-73-39-74-18-82 11-4 22 9 41 51 15 32 28 52 30 46 3-8 17-7 50 3 52 16 113 18 113 5 0-5-11-16-25-25-23-15-28-15-55-1-30 15-50 13-50-5 0-5 10-12 23-16 19-7 16-9-24-18-36-9-45-14-40-27 6-15 10-15 61 1 53 16 56 16 94-3 31-15 40-16 47-5 6 9 0 17-17 26l-26 14 21 22c44 47 17 82-57 73-26-3-63-9-82-13-32-6-34-5-20 9 10 11 42 18 104 21 49 3 90 7 91 8 2 2 5 24 9 49 8 53-8 74-49 67-30-6-30-5-8 17 14 14 14 18 2 26-11 7-11 9 4 9 9 0 17 7 17 15 0 17-31 18-120 4zm58-48c-22-29-48-40-48-22 0 5-3 16-6 24-6 16 11 24 54 26l24 1zm-78-17c0-31-24-31-38 0-9 21-8 25 6 29 25 5 32-1 32-29zm138-64c-1-24-5-30-23-30-12 0-44-3-70-7-45-6-48-5-41 13 4 10 8 24 9 29 2 11 44 22 94 24 29 1 32-2 31-29zm-171-20c-9-24-17-30-42-30-21 0-26 3-16 9 7 5 11 13 7 19-3 6 6 15 21 20 41 15 42 15 30-18z"/><path d="m866 307c3-10 9-15 12-12s0 11-7 18c-10 9-11 8-5-6z"/><path d="m887 300c-3-13-10-18-21-14-12 5-16 0-16-18 0-13-5-29-11-35s-12-32-13-57c-1-26 2-40 6-33 6 8 8 3 7-13-6-77 10-100 44-62 16 18 26 110 13 130-4 7-4 37-1 67 7 54 2 74-8 35zm-13-98c3-5-1-9-9-9s-12 4-9 9c3 4 7 8 9 8s6-4 9-8zm10-103c-3-5-10-7-15-3-5 3-7 10-3 15 3 5 10 7 15 3 5-3 7-10 3-15z"/><path d="m923 298c1-35-4-59-12-54-4 3-6-5-4-19 3-15 10-22 19-18 16 6 20 103 5 103-5 0-9-6-8-12z"/><path d="m929 188c-1-7-3-37-5-66-2-44-8-58-29-77-15-12-23-25-19-27 5-3 2-3-6-1-37 11-110 14-110 6 0-5-13-8-29-5-16 2-32-1-35-7-5-8 30-11 118-11h126v100c0 55-2 100-5 100s-6-6-6-12z"/><path d="m1 114c0-11 3-14 6-6 3 7 2 16-1 19-3 4-6-2-5-13z"/><path d="m0 45v-45h45c35 0 45 4 45 16 0 14-3 14-15 4-8-7-16-10-16-6-1 3-2 10-3 15 0 5-5 13-10 18s-6 3-2-4 3-13-3-13c-5 0-12 13-16 30-10 45-25 36-25-15z"/><path d="m567 60c-22-22-11-31 22-19 19 8 21 12 11 24-7 8-13 15-14 14 0 0-9-8-19-19z"/><path d="m670 65c-19-7-33-14-30-15 18-7 70-9 100-4 33 5 34 7 15 20-23 17-39 17-85-1z"/><path d="m115 22c-18-18 14-22 171-22 116 0 173 3 169 10-4 6-10 8-15 5s-20-1-35 5c-20 8-24 7-19-3 5-8 2-8-9 2-14 11-20 11-34 0-11-10-14-10-9-1 8 13-15 17-28 5-10-10-86-11-93 0-2 4-11 3-19-4-9-7-14-8-14-1 0 11-55 14-65 4z"/><path d="m476 13c-4-10 10-13 54-13 36 0 60 4 60 11 0 6-9 8-21 4-14-5-25-2-30 6-6 10-9 11-9 2 0-7-5-13-11-13-5 0-8 4-4 9 3 6-4 9-15 8-10-1-22-7-24-14z"/><path d="m607 24c-13-13 5-24 39-24 25 0 34 4 34 16 0 13-3 14-14 5-10-8-16-9-21-1-7 11-28 13-38 4z"/></g></svg>